<?xml version="1.0" encoding="UTF-8" standalone="no"?>
<!-- Generator: Adobe Illustrator 9.0, SVG Export Plug-In  -->

<svg
   xmlns:dc="http://purl.org/dc/elements/1.1/"
   xmlns:cc="http://creativecommons.org/ns#"
   xmlns:rdf="http://www.w3.org/1999/02/22-rdf-syntax-ns#"
   xmlns:svg="http://www.w3.org/2000/svg"
   xmlns="http://www.w3.org/2000/svg"
   xmlns:xlink="http://www.w3.org/1999/xlink"
   xmlns:sodipodi="http://sodipodi.sourceforge.net/DTD/sodipodi-0.dtd"
   xmlns:inkscape="http://www.inkscape.org/namespaces/inkscape"
   id="svg5105"
   height="48px"
   xml:space="preserve"
   sodipodi:version="0.32"
   viewBox="0 0 48 48"
   width="48px"
   sodipodi:docname="signed_broken.svg"
   version="1.1"
   inkscape:version="0.48.1 r9760"><metadata
   id="metadata5189">
  <rdf:RDF>
    <cc:Work
   rdf:about="">
      <dc:format>image/svg+xml</dc:format>
      <dc:type
   rdf:resource="http://purl.org/dc/dcmitype/StillImage" />
    <dc:title>Certificate</dc:title><dc:creator><cc:Agent><dc:title>Jakub Steiner</dc:title></cc:Agent></dc:creator><dc:subject><rdf:Bag><rdf:li>certificate</rdf:li></rdf:Bag></dc:subject><cc:license
   rdf:resource="http://creativecommons.org/licenses/by-sa/2.0/" /></cc:Work>
  <cc:License
   rdf:about="http://creativecommons.org/licenses/by-sa/2.0/"><cc:permits
     rdf:resource="http://web.resource.org/cc/Reproduction" /><cc:permits
     rdf:resource="http://web.resource.org/cc/Distribution" /><cc:requires
     rdf:resource="http://web.resource.org/cc/Notice" /><cc:requires
     rdf:resource="http://web.resource.org/cc/Attribution" /><cc:permits
     rdf:resource="http://web.resource.org/cc/DerivativeWorks" /><cc:requires
     rdf:resource="http://web.resource.org/cc/ShareAlike" /></cc:License></rdf:RDF>
</metadata>
<defs
   id="defs5187">
<linearGradient
   id="linearGradient6665">
  <stop
   id="stop6667"
   style="stop-color:#000000;"
   offset="0" />
  <stop
   id="stop6669"
   style="stop-color:#000000;stop-opacity:0.0000000;"
   offset="1" />
</linearGradient>
			<radialGradient
   id="aigrd1"
   cx="28.789"
   gradientUnits="userSpaceOnUse"
   cy="20.971"
   r="13.281">
				<stop
   id="stop5115"
   style="stop-color:#E41E08;"
   offset="0" />
				<stop
   id="stop5117"
   style="stop-color:#901505;"
   offset="1" />
			</radialGradient>
			<radialGradient
   id="aigrd2"
   cx="19.292"
   gradientUnits="userSpaceOnUse"
   cy="13.544"
   r="14.694">
				<stop
   id="stop5122"
   style="stop-color:#E41E08;"
   offset="0" />
				<stop
   id="stop5124"
   style="stop-color:#901505;"
   offset="1" />
			</radialGradient>
<radialGradient
   id="radialGradient2113"
   xlink:href="#aigrd2"
   gradientUnits="userSpaceOnUse"
   cy="20.479"
   cx="26.887"
   gradientTransform="matrix(1.4033 0 0 1.3485 -10.845 -.23617)"
   r="14.694" /><radialGradient
   id="radialGradient2116"
   xlink:href="#aigrd1"
   gradientUnits="userSpaceOnUse"
   cy="20.971"
   cx="28.789"
   gradientTransform="matrix(1.6193 0 0 1.5562 -15.915 -2.9658)"
   r="13.281" /><radialGradient
   id="radialGradient2119"
   xlink:href="#linearGradient6665"
   gradientUnits="userSpaceOnUse"
   cy="19.819"
   cx="24.452"
   gradientTransform="matrix(1.266 0 0 1.1592 -4.5738 1.6011)"
   r="33.156" /><linearGradient
   id="linearGradient2157"
   y2="49.895"
   xlink:href="#linearGradient6665"
   gradientUnits="userSpaceOnUse"
   x2="43.141"
   gradientTransform="matrix(1.2058 0 0 1.1057 -20.398 4.5804)"
   y1="5.9245"
   x1="15.339" /><linearGradient
   id="linearGradient2174"
   y2="22.783"
   xlink:href="#linearGradient6665"
   gradientUnits="userSpaceOnUse"
   x2="29.957"
   gradientTransform="matrix(1.2712 0 0 1.1545 -23.817 3.6433)"
   y1="9.4437"
   x1="18.57" /><radialGradient
   id="radialGradient2181"
   xlink:href="#aigrd2"
   gradientUnits="userSpaceOnUse"
   cy="20.479"
   cx="26.887"
   gradientTransform="matrix(1.4033 0 0 1.3485 -27.345 -.23617)"
   r="14.694" /><linearGradient
   id="linearGradient2183"
   y2="22.783"
   xlink:href="#linearGradient6665"
   gradientUnits="userSpaceOnUse"
   x2="29.957"
   gradientTransform="matrix(1.2712 0 0 1.1545 -6.3167 3.6433)"
   y1="9.4437"
   x1="18.57" /><linearGradient
   id="linearGradient2189"
   y2="49.895"
   xlink:href="#linearGradient6665"
   gradientUnits="userSpaceOnUse"
   x2="43.141"
   gradientTransform="matrix(1.2058 0 0 1.1057 -5.3977 4.5804)"
   y1="5.9245"
   x1="15.339" /><radialGradient
   id="radialGradient2207"
   xlink:href="#linearGradient6665"
   gradientUnits="userSpaceOnUse"
   cy="19.819"
   cx="24.452"
   gradientTransform="matrix(1.266 0 0 1.1592 -19.574 1.6011)"
   r="33.156" /><radialGradient
   id="radialGradient2209"
   xlink:href="#aigrd1"
   gradientUnits="userSpaceOnUse"
   cy="20.971"
   cx="28.789"
   gradientTransform="matrix(1.6193 0 0 1.5562 -30.915 -2.9658)"
   r="13.281" />
<linearGradient
   inkscape:collect="always"
   xlink:href="#linearGradient6684"
   id="linearGradient6690"
   gradientTransform="scale(0.843938,1.184922)"
   x1="37.502811"
   y1="35.458244"
   x2="36.499001"
   y2="27.403761"
   gradientUnits="userSpaceOnUse" />
<radialGradient
   inkscape:collect="always"
   xlink:href="#aigrd2-9"
   id="radialGradient6678"
   gradientUnits="userSpaceOnUse"
   gradientTransform="matrix(1.135551,0,0,1.135551,-4.540325,-2.077433)"
   cx="26.887432"
   cy="20.479359"
   fx="26.887432"
   fy="20.479359"
   r="14.6944" />
<radialGradient
   inkscape:collect="always"
   xlink:href="#linearGradient6665-8"
   id="radialGradient6675"
   gradientUnits="userSpaceOnUse"
   gradientTransform="matrix(1.024478,0,0,0.976107,1.646447,-0.353552)"
   cx="24.452202"
   cy="19.818913"
   fx="24.452202"
   fy="19.818913"
   r="33.156136" />
<radialGradient
   inkscape:collect="always"
   xlink:href="#linearGradient6665-8"
   id="radialGradient6663"
   gradientTransform="matrix(1.024478,0,0,0.976107,0.939339,-0.530329)"
   cx="24.452202"
   cy="19.818913"
   fx="24.452202"
   fy="19.818913"
   r="33.156136"
   gradientUnits="userSpaceOnUse" />
<linearGradient
   inkscape:collect="always"
   xlink:href="#linearGradient6625"
   id="linearGradient6631"
   gradientTransform="matrix(0.843938,0,0,1.184922,-1.28033,1.68934)"
   x1="38.506161"
   y1="22.886259"
   x2="38.250904"
   y2="35.017860"
   gradientUnits="userSpaceOnUse" />
<linearGradient
   inkscape:collect="always"
   xlink:href="#linearGradient6617"
   id="linearGradient6623"
   gradientTransform="matrix(1.02867,0,0,0.972129,-1.28033,1.18934)"
   x1="18.570419"
   y1="9.4436626"
   x2="29.957399"
   y2="22.783224"
   gradientUnits="userSpaceOnUse" />
<linearGradient
   inkscape:collect="always"
   xlink:href="#linearGradient6604"
   id="linearGradient6610"
   gradientTransform="matrix(0.975728,0,0,0.931033,-0.132002,1.978392)"
   x1="15.338736"
   y1="5.9244628"
   x2="43.140980"
   y2="49.895073"
   gradientUnits="userSpaceOnUse" />



				
			<radialGradient
   inkscape:collect="always"
   xlink:href="#aigrd1-1"
   id="radialGradient5284"
   gradientUnits="userSpaceOnUse"
   cx="28.7891"
   cy="20.9712"
   fx="28.7891"
   fy="20.9712"
   r="13.2807"
   gradientTransform="matrix(1.310386,0,0,1.310386,-8.642682,-4.375977)" />


<radialGradient
   inkscape:collect="always"
   xlink:href="#aigrd2-9"
   id="radialGradient5281"
   gradientUnits="userSpaceOnUse"
   cx="19.292"
   cy="13.5444"
   fx="19.292"
   fy="13.5444"
   r="14.6944"
   gradientTransform="matrix(1.135551,0.000000,0.000000,1.135551,-4.540325,-2.077433)" />


<linearGradient
   inkscape:collect="always"
   xlink:href="#aigrd3"
   id="linearGradient5274"
   gradientUnits="userSpaceOnUse"
   x1="18.229"
   y1="11.5991"
   x2="23.412"
   y2="16.7231"
   gradientTransform="matrix(1.135551,0.000000,0.000000,1.135551,-3.259995,-3.266773)" />



			
			
			
		<linearGradient
   id="aigrd3"
   gradientUnits="userSpaceOnUse"
   x1="18.229000"
   y1="11.599100"
   x2="23.412001"
   y2="16.723101">
				<stop
   offset="0"
   style="stop-color:#FFFFFF"
   id="stop5137" />



				<stop
   offset="1"
   style="stop-color:#901505"
   id="stop5139" />



			</linearGradient>



			
			
			
			
			
			<radialGradient
   id="aigrd2-9"
   cx="19.292000"
   cy="13.544400"
   r="14.694400"
   fx="19.292000"
   fy="13.544400"
   gradientUnits="userSpaceOnUse">
				<stop
   offset="0"
   style="stop-color:#E41E08"
   id="stop5122-8" />



				<stop
   offset="1"
   style="stop-color:#901505"
   id="stop5124-4" />



			</radialGradient>



			
			<radialGradient
   id="aigrd1-1"
   cx="28.789101"
   cy="20.971201"
   r="13.280700"
   fx="28.789101"
   fy="20.971201"
   gradientUnits="userSpaceOnUse">
				<stop
   offset="0"
   style="stop-color:#E41E08"
   id="stop5115-1" />



				<stop
   offset="1"
   style="stop-color:#901505"
   id="stop5117-5" />



			</radialGradient>



		
	
			
			
			<linearGradient
   inkscape:collect="always"
   xlink:href="#aigrd3"
   id="linearGradient5203"
   gradientUnits="userSpaceOnUse"
   x1="18.229"
   y1="11.5991"
   x2="23.412"
   y2="16.7231" />


<radialGradient
   inkscape:collect="always"
   xlink:href="#aigrd2-9"
   id="radialGradient5201"
   gradientUnits="userSpaceOnUse"
   cx="19.292"
   cy="13.5444"
   fx="19.292"
   fy="13.5444"
   r="14.6944" />


<radialGradient
   inkscape:collect="always"
   xlink:href="#aigrd1-1"
   id="radialGradient5199"
   gradientUnits="userSpaceOnUse"
   cx="28.7891"
   cy="20.9712"
   fx="28.7891"
   fy="20.9712"
   r="13.2807" />
<linearGradient
   id="linearGradient6604">
  <stop
   style="stop-color:#ffa196;stop-opacity:1.0000000;"
   offset="0.0000000"
   id="stop6606" />
  <stop
   style="stop-color:#ff1f06;stop-opacity:0;"
   offset="1"
   id="stop6608" />
</linearGradient>
<linearGradient
   id="linearGradient6617">
  <stop
   style="stop-color:#ffffff;stop-opacity:0.24742268;"
   offset="0.0000000"
   id="stop6619" />
  <stop
   style="stop-color:#ffffff;stop-opacity:0;"
   offset="1"
   id="stop6621" />
</linearGradient>
<linearGradient
   id="linearGradient6625">
  <stop
   style="stop-color:#1d2349;stop-opacity:1.0000000;"
   offset="0.0000000"
   id="stop6627" />
  <stop
   id="stop6637"
   offset="0.35315102"
   style="stop-color:#4c5279;stop-opacity:1.0000000;" />
  <stop
   id="stop6633"
   offset="0.46551725"
   style="stop-color:#b3bdff;stop-opacity:1.0000000;" />
  <stop
   style="stop-color:#727cbe;stop-opacity:1.0000000;"
   offset="0.64982164"
   id="stop6635" />
  <stop
   style="stop-color:#323c7e;stop-opacity:1.0000000;"
   offset="1.0000000"
   id="stop6629" />
</linearGradient>
<linearGradient
   id="linearGradient6665-8">
  <stop
   id="stop6667-5"
   offset="0.0000000"
   style="stop-color:#000000;stop-opacity:1.0000000;" />
  <stop
   id="stop6669-6"
   offset="1.0000000"
   style="stop-color:#000000;stop-opacity:0.0000000;" />
</linearGradient>
<linearGradient
   id="linearGradient6684">
  <stop
   style="stop-color:#d5dbff;stop-opacity:1.0000000;"
   offset="0.0000000"
   id="stop6686" />
  <stop
   style="stop-color:#6579ff;stop-opacity:0;"
   offset="1"
   id="stop6688" />
</linearGradient><radialGradient
   inkscape:collect="always"
   xlink:href="#linearGradient6665"
   id="radialGradient3140"
   gradientUnits="userSpaceOnUse"
   gradientTransform="matrix(1.266,0,0,1.1592,-19.574,1.6011)"
   cx="24.452"
   cy="19.819"
   r="33.156" /><radialGradient
   inkscape:collect="always"
   xlink:href="#aigrd1"
   id="radialGradient3142"
   gradientUnits="userSpaceOnUse"
   gradientTransform="matrix(1.6193,0,0,1.5562,-30.915,-2.9658)"
   cx="28.789"
   cy="20.971"
   r="13.281" /><radialGradient
   inkscape:collect="always"
   xlink:href="#aigrd2"
   id="radialGradient3144"
   gradientUnits="userSpaceOnUse"
   gradientTransform="matrix(1.4033,0,0,1.3485,-27.345,-0.23617)"
   cx="26.887"
   cy="20.479"
   r="14.694" /><linearGradient
   inkscape:collect="always"
   xlink:href="#linearGradient6665"
   id="linearGradient3146"
   gradientUnits="userSpaceOnUse"
   gradientTransform="matrix(1.2712,0,0,1.1545,-23.817,3.6433)"
   x1="18.57"
   y1="9.4437"
   x2="29.957"
   y2="22.783" /><linearGradient
   inkscape:collect="always"
   xlink:href="#linearGradient6665"
   id="linearGradient3148"
   gradientUnits="userSpaceOnUse"
   gradientTransform="matrix(1.2058,0,0,1.1057,-20.398,4.5804)"
   x1="15.339"
   y1="5.9245"
   x2="43.141"
   y2="49.895" /><radialGradient
   inkscape:collect="always"
   xlink:href="#linearGradient6665"
   id="radialGradient3150"
   gradientUnits="userSpaceOnUse"
   gradientTransform="matrix(1.266,0,0,1.1592,-4.5738,1.6011)"
   cx="24.452"
   cy="19.819"
   r="33.156" /><radialGradient
   inkscape:collect="always"
   xlink:href="#aigrd1"
   id="radialGradient3152"
   gradientUnits="userSpaceOnUse"
   gradientTransform="matrix(1.6193,0,0,1.5562,-15.915,-2.9658)"
   cx="28.789"
   cy="20.971"
   r="13.281" /><radialGradient
   inkscape:collect="always"
   xlink:href="#aigrd2"
   id="radialGradient3154"
   gradientUnits="userSpaceOnUse"
   gradientTransform="matrix(1.4033,0,0,1.3485,-10.845,-0.23617)"
   cx="26.887"
   cy="20.479"
   r="14.694" /><linearGradient
   inkscape:collect="always"
   xlink:href="#linearGradient6665"
   id="linearGradient3156"
   gradientUnits="userSpaceOnUse"
   gradientTransform="matrix(1.2712,0,0,1.1545,-6.3167,3.6433)"
   x1="18.57"
   y1="9.4437"
   x2="29.957"
   y2="22.783" /><linearGradient
   inkscape:collect="always"
   xlink:href="#linearGradient6665"
   id="linearGradient3158"
   gradientUnits="userSpaceOnUse"
   gradientTransform="matrix(1.2058,0,0,1.1057,-5.3977,4.5804)"
   x1="15.339"
   y1="5.9245"
   x2="43.141"
   y2="49.895" />
<linearGradient
   inkscape:collect="always"
   xlink:href="#linearGradient6684-8"
   id="linearGradient6690-4"
   gradientTransform="scale(0.843938,1.184922)"
   x1="37.502811"
   y1="35.458244"
   x2="36.499001"
   y2="27.403761"
   gradientUnits="userSpaceOnUse" />
<radialGradient
   inkscape:collect="always"
   xlink:href="#aigrd2-0"
   id="radialGradient6678-2"
   gradientUnits="userSpaceOnUse"
   gradientTransform="matrix(1.135551,0,0,1.135551,-4.540325,-2.077433)"
   cx="26.887432"
   cy="20.479359"
   fx="26.887432"
   fy="20.479359"
   r="14.6944" />
<radialGradient
   inkscape:collect="always"
   xlink:href="#linearGradient6665-1"
   id="radialGradient6675-2"
   gradientUnits="userSpaceOnUse"
   gradientTransform="matrix(1.024478,0,0,0.976107,1.646447,-0.353552)"
   cx="24.452202"
   cy="19.818913"
   fx="24.452202"
   fy="19.818913"
   r="33.156136" />
<radialGradient
   inkscape:collect="always"
   xlink:href="#linearGradient6665-1"
   id="radialGradient6663-9"
   gradientTransform="matrix(1.024478,0,0,0.976107,0.939339,-0.530329)"
   cx="24.452202"
   cy="19.818913"
   fx="24.452202"
   fy="19.818913"
   r="33.156136"
   gradientUnits="userSpaceOnUse" />
<linearGradient
   inkscape:collect="always"
   xlink:href="#linearGradient6625-6"
   id="linearGradient6631-6"
   gradientTransform="matrix(0.843938,0,0,1.184922,-1.28033,1.68934)"
   x1="38.506161"
   y1="22.886259"
   x2="38.250904"
   y2="35.017860"
   gradientUnits="userSpaceOnUse" />
<linearGradient
   inkscape:collect="always"
   xlink:href="#linearGradient6617-6"
   id="linearGradient6623-4"
   gradientTransform="matrix(1.02867,0,0,0.972129,-1.28033,1.18934)"
   x1="18.570419"
   y1="9.4436626"
   x2="29.957399"
   y2="22.783224"
   gradientUnits="userSpaceOnUse" />
<linearGradient
   inkscape:collect="always"
   xlink:href="#linearGradient6604-8"
   id="linearGradient6610-9"
   gradientTransform="matrix(0.975728,0,0,0.931033,-0.132002,1.978392)"
   x1="15.338736"
   y1="5.9244628"
   x2="43.140980"
   y2="49.895073"
   gradientUnits="userSpaceOnUse" />



				
			<radialGradient
   inkscape:collect="always"
   xlink:href="#aigrd1-6"
   id="radialGradient5284-5"
   gradientUnits="userSpaceOnUse"
   cx="28.7891"
   cy="20.9712"
   fx="28.7891"
   fy="20.9712"
   r="13.2807"
   gradientTransform="matrix(1.310386,0,0,1.310386,-8.642682,-4.375977)" />


<radialGradient
   inkscape:collect="always"
   xlink:href="#aigrd2-0"
   id="radialGradient5281-0"
   gradientUnits="userSpaceOnUse"
   cx="19.292"
   cy="13.5444"
   fx="19.292"
   fy="13.5444"
   r="14.6944"
   gradientTransform="matrix(1.135551,0.000000,0.000000,1.135551,-4.540325,-2.077433)" />


<linearGradient
   inkscape:collect="always"
   xlink:href="#aigrd3-9"
   id="linearGradient5274-4"
   gradientUnits="userSpaceOnUse"
   x1="18.229"
   y1="11.5991"
   x2="23.412"
   y2="16.7231"
   gradientTransform="matrix(1.135551,0.000000,0.000000,1.135551,-3.259995,-3.266773)" />



			
			
			
		<linearGradient
   id="aigrd3-9"
   gradientUnits="userSpaceOnUse"
   x1="18.229000"
   y1="11.599100"
   x2="23.412001"
   y2="16.723101">
				<stop
   offset="0"
   style="stop-color:#FFFFFF"
   id="stop5137-2" />



				<stop
   offset="1"
   style="stop-color:#901505"
   id="stop5139-5" />



			</linearGradient>



			
			
			
			
			
			<radialGradient
   id="aigrd2-0"
   cx="19.292000"
   cy="13.544400"
   r="14.694400"
   fx="19.292000"
   fy="13.544400"
   gradientUnits="userSpaceOnUse">
				<stop
   offset="0"
   style="stop-color:#E41E08"
   id="stop5122-3" />



				<stop
   offset="1"
   style="stop-color:#901505"
   id="stop5124-0" />



			</radialGradient>



			
			<radialGradient
   id="aigrd1-6"
   cx="28.789101"
   cy="20.971201"
   r="13.280700"
   fx="28.789101"
   fy="20.971201"
   gradientUnits="userSpaceOnUse">
				<stop
   offset="0"
   style="stop-color:#E41E08"
   id="stop5115-4" />



				<stop
   offset="1"
   style="stop-color:#901505"
   id="stop5117-3" />



			</radialGradient>



		
	
			
			
			<linearGradient
   inkscape:collect="always"
   xlink:href="#aigrd3-9"
   id="linearGradient5203-7"
   gradientUnits="userSpaceOnUse"
   x1="18.229"
   y1="11.5991"
   x2="23.412"
   y2="16.7231" />


<radialGradient
   inkscape:collect="always"
   xlink:href="#aigrd2-0"
   id="radialGradient5201-7"
   gradientUnits="userSpaceOnUse"
   cx="19.292"
   cy="13.5444"
   fx="19.292"
   fy="13.5444"
   r="14.6944" />


<radialGradient
   inkscape:collect="always"
   xlink:href="#aigrd1-6"
   id="radialGradient5199-9"
   gradientUnits="userSpaceOnUse"
   cx="28.7891"
   cy="20.9712"
   fx="28.7891"
   fy="20.9712"
   r="13.2807" />
<linearGradient
   id="linearGradient6604-8">
  <stop
   style="stop-color:#ffa196;stop-opacity:1.0000000;"
   offset="0.0000000"
   id="stop6606-8" />
  <stop
   style="stop-color:#ff1f06;stop-opacity:0;"
   offset="1"
   id="stop6608-8" />
</linearGradient>
<linearGradient
   id="linearGradient6617-6">
  <stop
   style="stop-color:#ffffff;stop-opacity:0.24742268;"
   offset="0.0000000"
   id="stop6619-0" />
  <stop
   style="stop-color:#ffffff;stop-opacity:0;"
   offset="1"
   id="stop6621-4" />
</linearGradient>
<linearGradient
   id="linearGradient6625-6">
  <stop
   style="stop-color:#1d2349;stop-opacity:1.0000000;"
   offset="0.0000000"
   id="stop6627-4" />
  <stop
   id="stop6637-3"
   offset="0.35315102"
   style="stop-color:#4c5279;stop-opacity:1.0000000;" />
  <stop
   id="stop6633-3"
   offset="0.46551725"
   style="stop-color:#b3bdff;stop-opacity:1.0000000;" />
  <stop
   style="stop-color:#727cbe;stop-opacity:1.0000000;"
   offset="0.64982164"
   id="stop6635-3" />
  <stop
   style="stop-color:#323c7e;stop-opacity:1.0000000;"
   offset="1.0000000"
   id="stop6629-8" />
</linearGradient>
<linearGradient
   id="linearGradient6665-1">
  <stop
   id="stop6667-8"
   offset="0.0000000"
   style="stop-color:#000000;stop-opacity:1.0000000;" />
  <stop
   id="stop6669-9"
   offset="1.0000000"
   style="stop-color:#000000;stop-opacity:0.0000000;" />
</linearGradient>
<linearGradient
   id="linearGradient6684-8">
  <stop
   style="stop-color:#d5dbff;stop-opacity:1.0000000;"
   offset="0.0000000"
   id="stop6686-8" />
  <stop
   style="stop-color:#6579ff;stop-opacity:0;"
   offset="1"
   id="stop6688-3" />
</linearGradient></defs>
<sodipodi:namedview
   id="base"
   bordercolor="#666666"
   pagecolor="#ffffff"
   borderopacity="0.16470588"
   showgrid="false"
   inkscape:zoom="13.906433"
   inkscape:cx="37.73596"
   inkscape:cy="22.646497"
   inkscape:window-width="1920"
   inkscape:window-height="1152"
   inkscape:window-x="1400"
   inkscape:window-y="0"
   inkscape:window-maximized="1"
   inkscape:current-layer="g3120" />
<g
   id="g3110"
   transform="translate(1.5026486,0.46240767)"><path
     id="path6671"
     d="m 25.38911,19.305038 c 0,0 -5.904865,8.175967 -5.904865,11.923286 0,3.747318 6.813306,1.703326 9.538628,4.428649 2.725322,2.725322 -6.359086,9.765738 -6.359086,9.765738 l 9.084408,-2.498212 3.633764,3.860873 c 0,-4.655759 5.337089,-8.403077 2.611767,-11.241954 -2.838878,-2.838878 -10.90129,-2.498213 -11.35551,-6.245531 -0.454221,-3.747318 -1.135551,-9.879294 -1.135551,-9.879294 L 25.38911,19.305038 z"
     style="opacity:0.48044691;color:#000000;fill:url(#radialGradient6675);fill-opacity:1;fill-rule:nonzero;stroke:none;stroke-width:1;marker:none;visibility:visible;display:inline;overflow:visible"
     inkscape:connector-curvature="0" /><path
     style="fill:url(#linearGradient6631);fill-opacity:1;fill-rule:nonzero;stroke:#1f254f;stroke-width:1;stroke-miterlimit:6.5999999;stroke-opacity:1"
     d="m 23.62134,18.067599 c 0,0 -5.904865,8.175967 -5.904865,11.923286 0,3.747318 6.813306,1.703326 9.538628,4.428649 2.725322,2.725322 -6.359086,9.765738 -6.359086,9.765738 l 9.084408,-2.498212 3.633764,3.860873 c 0,-4.655759 5.337089,-8.403077 2.611767,-11.241954 -2.838878,-2.838878 -10.90129,-2.498213 -11.35551,-6.245531 -0.454221,-3.747318 -1.135551,-9.879294 -1.135551,-9.879294 L 23.62134,18.067599 z"
     id="path5112"
     inkscape:connector-curvature="0" /><path
     id="path6680"
     d="m 20.803213,31.602421 c 4.552,0.448384 7.429014,1.235525 7.806622,3.989107 0.330114,2.407239 -4.232143,6.732959 -4.232143,6.732959 l 5.843888,-1.624746 2.84137,2.96095 c 0.662912,-3.71094 4.364808,-6.222004 2.678906,-8.504604 -2.114688,-2.863148 -8.966049,-2.243467 -9.293599,-4.945752 -0.32755,-2.702286 -8.334061,1.124615 -5.645044,1.392086 z"
     style="fill:none;stroke:url(#linearGradient6690);stroke-width:0.72112519;stroke-miterlimit:6.5999999;stroke-opacity:1"
     sodipodi:nodetypes="cscccsss"
     inkscape:connector-curvature="0" /></g><g
   id="g3120"
   transform="matrix(0.88675575,0,0,0.88675575,2.7413139,-3.9247017)"><g
     transform="matrix(0.91995,0,0,0.92124,14.426,2.3803)"
     id="g2199"><path
       d="M 9.125,41.375 C 8.9952,41.087 8.8996,40.907 8.7812,40.594 8.6375,40.213 8.5364,39.821 8.5,39.5 8.4636,39.179 8.5171,38.936 8.6875,38.781 c 0.457,-0.415 1.2769,-0.941 1.9065,-1.562 0.314,-0.311 0.581,-0.671 0.718,-1.031 0.138,-0.361 0.155,-0.717 -0.031,-1.126 -0.093,-0.206 -0.495,-0.743 -0.843,-1.25 -0.349,-0.506 -0.655,-1.002 -0.5318,-1.187 0.3718,-0.557 0.7888,-1.562 1.3128,-1.969 0.505,-0.393 0.782,-0.719 0.875,-1 0.093,-0.28 -0.007,-0.512 -0.219,-0.75 C 11.452,28.431 10.524,27.972 9.5312,27.25 9.2449,27.042 8.3483,26.458 7.4688,25.844 6.5892,25.229 5.724,24.557 5.5625,24.125 5.6632,23.73 6.2014,23.099 6.6875,22.562 7.1736,22.026 7.625,21.594 7.625,21.594 8.3989,20.993 8.6133,20.78 8.5312,20.562 8.4492,20.345 8.0713,20.138 7.6875,19.562 7.4234,19.166 7.4082,18.896 7.4688,18.625 7.5294,18.354 7.6652,18.068 7.625,17.625 7.5618,16.93 6.7502,16.784 6.6875,16.094 6.6237,15.392 6.7444,14.197 6.6875,13.156 6.659,12.636 6.5977,12.145 6.4375,11.781 6.2773,11.417 6.006,11.171 5.625,11.125 5.2942,10.89 5.0984,10.411 4.9688,10 4.8391,9.5893 4.7812,9.25 4.7812,9.25 4.7812,9.25 5.373,8.5327 6.625,7.5938 7.2422,7.1308 7.9691,6.6225 8.4688,6.0625 8.6571,5.8514 8.7723,5.6298 8.875,5.4062 6.7117,5.1289 4.8488,4.625 1.6875,4.625 c -4.2248,0 -4.3312,5.856 -7.9375,9.75 -3.4953,3.775 -5.938,5.909 -5.938,9.969 0,4.06 3.7284,7.226 6.0942,9.5 2.1969,2.111 2.2777,7.439 4.8126,9.875 2.1073,2.025 7.093,-1.161 10.406,-2.344 z"
       style="opacity:0.50044693;fill:url(#radialGradient3140);fill-rule:nonzero"
       id="path2165"
       inkscape:connector-curvature="0" /><path
       d="m 8.7188,5.6875 c -2.6862,-0.1417 -4.4388,-0.875 -8,-0.875 -4.0483,0 -4.1694,5.6125 -7.625,9.3435 -3.3498,3.617 -5.6878,5.672 -5.6878,9.563 0,3.89 3.577,6.915 5.844,9.093 2.1051,2.024 2.1648,7.135 4.5938,9.469 2.1926,2.107 7.6597,-1.68 10.75,-2.469 C 8.5714,39.712 8.5105,39.593 8.5,39.5 8.4636,39.179 8.5171,38.936 8.6875,38.781 c 0.457,-0.415 1.2769,-0.941 1.9065,-1.562 0.314,-0.311 0.581,-0.671 0.718,-1.031 0.138,-0.361 0.155,-0.717 -0.031,-1.126 -0.093,-0.206 -0.495,-0.743 -0.843,-1.25 -0.349,-0.506 -0.655,-1.002 -0.5318,-1.187 0.3718,-0.557 0.7888,-1.562 1.3128,-1.969 0.505,-0.393 0.782,-0.719 0.875,-1 0.093,-0.28 -0.007,-0.512 -0.219,-0.75 C 11.452,28.431 10.524,27.972 9.5312,27.25 9.2449,27.042 8.3483,26.458 7.4688,25.844 6.5892,25.229 5.724,24.557 5.5625,24.125 5.6632,23.73 6.2014,23.099 6.6875,22.562 7.1736,22.026 7.625,21.594 7.625,21.594 8.3989,20.993 8.6133,20.78 8.5312,20.562 8.4492,20.345 8.0713,20.138 7.6875,19.562 7.4234,19.166 7.4082,18.896 7.4688,18.625 7.5294,18.354 7.6652,18.068 7.625,17.625 7.5618,16.93 6.7502,16.784 6.6875,16.094 6.6237,15.392 6.7444,14.197 6.6875,13.156 6.659,12.636 6.5977,12.145 6.4375,11.781 6.2773,11.417 6.006,11.171 5.625,11.125 5.2942,10.89 5.0984,10.411 4.9688,10 4.8391,9.5893 4.7812,9.25 4.7812,9.25 4.7812,9.25 5.373,8.5327 6.625,7.5938 7.2422,7.1308 7.9691,6.6225 8.4688,6.0625 8.5786,5.9393 8.6353,5.815 8.7188,5.6875 z"
       style="fill:url(#radialGradient3142);fill-rule:nonzero;stroke:#4c0901;stroke-width:1.12770629;stroke-linecap:round;stroke-linejoin:round;stroke-miterlimit:4"
       id="path2148"
       inkscape:connector-curvature="0" /><path
       d="m 3.5938,10.188 c -5.8487,1.626 -10.156,6.779 -10.156,12.906 -3e-4,7.417 6.313,13.5 14.031,13.5 0.7609,0 1.4897,-0.106 2.2187,-0.219 0.0323,-0.063 0.1003,-0.123 0.125,-0.187 C 9.9503,35.827 9.967,35.471 9.7812,35.062 9.6876,34.856 9.2857,34.319 8.9375,33.812 8.5893,33.306 8.283,32.81 8.4062,32.625 c 0.3715,-0.557 0.7891,-1.562 1.3126,-1.969 0.5052,-0.393 0.7822,-0.719 0.8752,-1 0.093,-0.28 -0.007,-0.512 -0.219,-0.75 C 9.952,28.431 9.0238,27.972 8.0312,27.25 7.7449,27.042 6.8483,26.458 5.9688,25.844 5.0892,25.229 4.224,24.557 4.0625,24.125 4.1632,23.73 4.7014,23.099 5.1875,22.562 5.6736,22.026 6.125,21.594 6.125,21.594 6.8989,20.993 7.1133,20.78 7.0312,20.562 6.9492,20.345 6.5713,20.138 6.1875,19.562 5.9234,19.166 5.9082,18.896 5.9688,18.625 6.0294,18.354 6.1652,18.068 6.125,17.625 6.0618,16.93 5.2502,16.784 5.1875,16.094 5.1237,15.392 5.2444,14.197 5.1875,13.156 5.159,12.636 5.0977,12.145 4.9375,11.781 4.7773,11.417 4.506,11.171 4.125,11.125 3.8513,10.931 3.7255,10.537 3.5938,10.188 z"
       style="fill:url(#radialGradient3144);fill-rule:nonzero"
       id="path2179"
       inkscape:connector-curvature="0" /><path
       d="m 3.5938,11.094 c -5.5859,1.45 -9.75,6.302 -9.75,12.125 0,4.359 2.4685,8.044 5.9687,10.312 3.5915,-1.857 5.4045,-4.29 7.1563,-6.687 -0.4209,-0.275 -0.8649,-0.556 -1.5,-1 C 4.5892,25.229 3.724,24.557 3.5625,24.125 3.6632,23.73 4.2014,23.099 4.6875,22.562 5.1736,22.026 5.625,21.594 5.625,21.594 6.3989,20.993 6.6133,20.78 6.5312,20.562 6.4492,20.345 6.0713,20.138 5.6875,19.562 5.4234,19.166 5.4082,18.896 5.4688,18.625 5.5294,18.354 5.6652,18.068 5.625,17.625 5.5618,16.93 4.7502,16.784 4.6875,16.094 4.6237,15.392 4.7444,14.197 4.6875,13.156 4.659,12.636 4.5977,12.145 4.4375,11.781 4.2773,11.417 4.006,11.171 3.625,11.125 3.6141,11.117 3.6044,11.102 3.5938,11.094 z"
       style="color:#000000;fill:url(#linearGradient3146);fill-rule:nonzero;marker-start:none;marker-mid:none;marker-end:none"
       id="path2172"
       inkscape:connector-curvature="0" /><path
       d="M 4.9727,6.7682 C 3.2909,6.5057 3.9375,6.5 1.4062,6.5 c -3.6868,0 -3.7904,5.101 -6.9374,8.5 -3.0503,3.294 -5.1878,5.144 -5.1878,8.688 0,3.543 3.2794,6.328 5.344,8.312 1.9172,1.842 1.9754,6.499 4.1875,8.625 2.2121,2.126 5.6388,-2.245 8.1458,-2.245 0.3785,-0.283 1.105,-0.993 1.4564,-1.34 0.3147,-0.311 0.76,-0.492 0.8978,-0.852 C 9.4503,35.827 9.467,35.471 9.2812,35.062 9.1876,34.856 8.7857,34.319 8.4375,33.812 8.0893,33.306 7.783,32.81 7.9062,32.625 8.2777,32.068 8.6953,31.063 9.2188,30.656 9.7244,30.263 10.001,29.937 10.094,29.656 10.187,29.376 8.5954,28.473 7.6029,27.751 7.3165,27.543 6.3125,26.996 5.4329,26.381 4.5533,25.766 3.724,24.557 3.5625,24.125 3.6632,23.73 4.2014,23.099 4.6875,22.562 5.1736,22.026 5.625,21.594 5.625,21.594 6.3989,20.993 6.5417,20.565 6.4596,20.348 6.3776,20.13 5.7304,19.504 5.791,19.234 5.8516,18.963 5.8443,18.641 5.804,18.198 5.7408,17.502 5.0009,17.106 4.9382,16.416 4.8743,15.714 5.1025,15.056 5.0456,14.016 5.0171,13.495 4.9558,13.004 4.7956,12.641 4.6353,12.277 4.3641,12.031 3.9831,11.984 3.6522,11.75 3.0984,10.411 2.9688,10 2.8391,9.5893 2.7812,9.25 2.7812,9.25 c 0,0 0.377,-1.074 1.629,-2.013 0.1885,-0.1414 0.362,-0.3179 0.5625,-0.4688 z"
       style="fill:none;stroke:url(#linearGradient3148);stroke-width:1.12770629;stroke-linecap:round;stroke-linejoin:round;stroke-miterlimit:4"
       sodipodi:nodetypes="cssssscssssssssscscsssssscscsc"
       id="path2155"
       inkscape:connector-curvature="0" /><path
       d="m 8.7188,5.6875 c -2.6862,-0.1417 -4.4388,-0.875 -8,-0.875 -4.0483,0 -4.1694,5.6125 -7.625,9.3435 -3.3498,3.617 -5.6878,5.672 -5.6878,9.563 0,3.89 3.577,6.915 5.844,9.093 2.1051,2.024 2.1648,7.135 4.5938,9.469 2.1926,2.107 7.6597,-1.68 10.75,-2.469 C 8.5714,39.712 8.5105,39.593 8.5,39.5 8.4636,39.179 8.5171,38.936 8.6875,38.781 c 0.457,-0.415 1.2769,-0.941 1.9065,-1.562 0.314,-0.311 0.581,-0.671 0.718,-1.031 0.138,-0.361 0.155,-0.717 -0.031,-1.126 -0.093,-0.206 -0.495,-0.743 -0.843,-1.25 -0.349,-0.506 -0.655,-1.002 -0.5318,-1.187 0.3718,-0.557 0.7888,-1.562 1.3128,-1.969 0.505,-0.393 0.782,-0.719 0.875,-1 0.093,-0.28 -0.007,-0.512 -0.219,-0.75 C 11.452,28.431 10.524,27.972 9.5312,27.25 9.2449,27.042 8.3483,26.458 7.4688,25.844 6.5892,25.229 5.724,24.557 5.5625,24.125 5.6632,23.73 6.2014,23.099 6.6875,22.562 7.1736,22.026 7.625,21.594 7.625,21.594 8.3989,20.993 8.6133,20.78 8.5312,20.562 8.4492,20.345 8.0713,20.138 7.6875,19.562 7.4234,19.166 7.4082,18.896 7.4688,18.625 7.5294,18.354 7.6652,18.068 7.625,17.625 7.5618,16.93 6.7502,16.784 6.6875,16.094 6.6237,15.392 6.7444,14.197 6.6875,13.156 6.659,12.636 6.5977,12.145 6.4375,11.781 6.2773,11.417 6.006,11.171 5.625,11.125 5.2942,10.89 5.0984,10.411 4.9688,10 4.8391,9.5893 4.7812,9.25 4.7812,9.25 4.7812,9.25 5.373,8.5327 6.625,7.5938 7.2422,7.1308 7.9691,6.6225 8.4688,6.0625 8.5786,5.9393 8.6353,5.815 8.7188,5.6875 z"
       style="fill:none"
       id="path2185"
       inkscape:connector-curvature="0" /></g><g
     transform="matrix(0.91995,0,0,0.92124,4.7663,1.9197)"
     id="g2191"><path
       d="m 34.156,4.1562 c -2.244,-0.1232 -3.732,1.3956 -8.031,1.5 -0.905,0.022 -1.522,-0.1566 -2.25,-0.25 -0.103,0.2236 -0.218,0.4452 -0.406,0.6563 -0.5,0.56 -1.227,1.0683 -1.844,1.5313 -1.252,0.9389 -1.844,1.6562 -1.844,1.6562 0,0 0.058,0.3393 0.188,0.75 0.129,0.411 0.325,0.89 0.656,1.125 0.381,0.046 0.652,0.292 0.813,0.656 0.16,0.364 0.221,0.855 0.25,1.375 0.056,1.041 -0.064,2.236 0,2.938 0.062,0.69 0.874,0.836 0.937,1.531 0.04,0.443 -0.096,0.729 -0.156,1 -0.061,0.271 -0.046,0.541 0.219,0.937 0.383,0.576 0.761,0.783 0.843,1 0.082,0.218 -0.132,0.431 -0.906,1.032 0,0 -0.451,0.432 -0.937,0.968 -0.487,0.537 -1.025,1.168 -1.126,1.563 0.162,0.432 1.027,1.104 1.907,1.719 0.879,0.614 1.776,1.198 2.062,1.406 0.993,0.722 1.921,1.181 2.344,1.656 0.212,0.238 0.312,0.47 0.219,0.75 -0.093,0.281 -0.37,0.607 -0.875,1 -0.524,0.407 -0.941,1.412 -1.313,1.969 -0.123,0.185 0.183,0.681 0.532,1.187 0.348,0.507 0.75,1.044 0.843,1.25 0.186,0.409 0.169,0.765 0.031,1.126 -0.137,0.36 -0.404,0.72 -0.718,1.031 -0.63,0.621 -1.449,1.147 -1.906,1.562 -0.171,0.155 -0.224,0.398 -0.188,0.719 0.036,0.321 0.138,0.713 0.281,1.094 0.119,0.313 0.214,0.493 0.344,0.781 0.672,-0.24 1.391,-0.531 1.875,-0.531 2.873,0 5.084,1.681 9.625,0.468 4.585,-1.223 2.748,-5.375 4.437,-7 1.69,-1.623 6.657,-2.989 6.657,-5.75 0,-2.76 -2.21,-4.172 -2.25,-6.874 C 44.398,16.841 41.508,17.006 39.875,13.375 38.597,10.533 40.498,6.7487 36.781,4.9375 35.727,4.4239 34.904,4.1973 34.156,4.1562 z"
       style="opacity:0.50044693;fill:url(#radialGradient3150);fill-rule:nonzero"
       id="path6639"
       inkscape:connector-curvature="0" /><path
       d="m 23.719,5.6875 c -0.084,0.1275 -0.14,0.2518 -0.25,0.375 -0.5,0.56 -1.227,1.0683 -1.844,1.5313 -1.252,0.9389 -1.844,1.6562 -1.844,1.6562 0,0 0.058,0.3393 0.188,0.75 0.129,0.411 0.325,0.89 0.656,1.125 0.381,0.046 0.652,0.292 0.813,0.656 0.16,0.364 0.221,0.855 0.25,1.375 0.056,1.041 -0.064,2.236 0,2.938 0.062,0.69 0.874,0.836 0.937,1.531 0.04,0.443 -0.096,0.729 -0.156,1 -0.061,0.271 -0.046,0.541 0.219,0.937 0.383,0.576 0.761,0.783 0.843,1 0.082,0.218 -0.132,0.431 -0.906,1.032 0,0 -0.451,0.432 -0.937,0.968 -0.487,0.537 -1.025,1.168 -1.126,1.563 0.162,0.432 1.027,1.104 1.907,1.719 0.879,0.614 1.776,1.198 2.062,1.406 0.993,0.722 1.921,1.181 2.344,1.656 0.212,0.238 0.312,0.47 0.219,0.75 -0.093,0.281 -0.37,0.607 -0.875,1 -0.524,0.407 -0.941,1.412 -1.313,1.969 -0.123,0.185 0.183,0.681 0.532,1.187 0.348,0.507 0.75,1.044 0.843,1.25 0.186,0.409 0.169,0.765 0.031,1.126 -0.137,0.36 -0.404,0.72 -0.718,1.031 -0.63,0.621 -1.449,1.147 -1.906,1.562 -0.171,0.155 -0.224,0.398 -0.188,0.719 0.01,0.093 0.071,0.212 0.094,0.312 0.333,-0.085 0.763,-0.312 1.031,-0.312 2.753,0 4.867,1.63 9.219,0.469 4.393,-1.173 2.662,-5.163 4.281,-6.719 1.619,-1.556 6.375,-2.855 6.375,-5.5 0,-2.645 -2.149,-4.004 -2.188,-6.594 -0.067,-4.643 -2.81,-4.458 -4.374,-7.937 C 36.712,10.495 38.53,6.8605 34.969,5.125 30.929,3.1566 30.242,5.6479 24.75,5.7812 24.335,5.7913 24.086,5.7069 23.719,5.6875 z"
       style="fill:url(#radialGradient3152);fill-rule:nonzero"
       id="path5119"
       inkscape:connector-curvature="0" /><path
       d="m 20.094,10.188 c 0.132,0.349 0.257,0.743 0.531,0.937 0.381,0.046 0.652,0.292 0.813,0.656 0.16,0.364 0.221,0.855 0.25,1.375 0.056,1.041 -0.064,2.236 0,2.938 0.062,0.69 0.874,0.836 0.937,1.531 0.04,0.443 -0.096,0.729 -0.156,1 -0.061,0.271 -0.046,0.541 0.219,0.937 0.383,0.576 0.761,0.783 0.843,1 0.082,0.218 -0.132,0.431 -0.906,1.032 0,0 -0.451,0.432 -0.937,0.968 -0.487,0.537 -1.025,1.168 -1.126,1.563 0.162,0.432 1.027,1.104 1.907,1.719 0.879,0.614 1.776,1.198 2.062,1.406 0.993,0.722 1.921,1.181 2.344,1.656 0.212,0.238 0.312,0.47 0.219,0.75 -0.093,0.281 -0.37,0.607 -0.875,1 -0.524,0.407 -0.941,1.412 -1.313,1.969 -0.123,0.185 0.183,0.681 0.532,1.187 0.348,0.507 0.75,1.044 0.843,1.25 0.186,0.409 0.169,0.765 0.031,1.126 -0.024,0.064 -0.092,0.124 -0.124,0.187 C 32.852,35.338 38,29.779 38,23.094 c 0,-7.417 -6.313,-13.5 -14.031,-13.5 -1.343,-2e-4 -2.643,0.2508 -3.875,0.594 z"
       style="fill:url(#radialGradient3154);fill-rule:nonzero"
       id="path5126"
       inkscape:connector-curvature="0" /><path
       d="m 21.094,11.094 c 0.01,0.008 0.02,0.023 0.031,0.031 0.381,0.046 0.652,0.292 0.813,0.656 0.16,0.364 0.221,0.855 0.25,1.375 0.056,1.041 -0.064,2.236 0,2.938 0.062,0.69 0.874,0.836 0.937,1.531 0.04,0.443 -0.096,0.729 -0.156,1 -0.061,0.271 -0.046,0.541 0.219,0.937 0.383,0.576 0.761,0.783 0.843,1 0.082,0.218 -0.132,0.431 -0.906,1.032 0,0 -0.451,0.432 -0.937,0.968 -0.487,0.537 -1.025,1.168 -1.126,1.563 0.162,0.432 1.027,1.104 1.907,1.719 0.635,0.444 1.079,0.725 1.5,1 2.612,-3.575 4.984,-7.089 12.125,-8.469 -1.976,-4.571 -6.625,-7.781 -12.094,-7.781 -1.192,0 -2.307,0.214 -3.406,0.5 z"
       style="color:#000000;fill:url(#linearGradient3156);fill-rule:nonzero;marker-start:none;marker-mid:none;marker-end:none"
       id="path6612"
       inkscape:connector-curvature="0" /><path
       d="M 22.688,7.125 C 22.487,7.2759 22.314,7.4523 22.125,7.5938 20.873,8.5327 20.281,9.25 20.281,9.25 c 0,0 0.058,0.3393 0.188,0.75 0.129,0.411 0.184,0.53 0.515,0.765 0.381,0.046 0.793,0.652 0.954,1.016 0.16,0.364 0.221,0.855 0.25,1.375 0.056,1.041 -0.175,2.944 0.078,3.157 0.419,0.354 0.796,0.617 0.859,1.312 0.04,0.443 -0.074,0.735 -0.156,1 -0.123,0.396 0.048,0.51 0.312,0.906 0.384,0.576 0.749,0.633 0.75,1.031 0.001,0.306 -0.038,0.603 -0.812,1.204 0,0 -0.467,0.338 -0.953,0.875 -0.486,0.536 -1.024,1.105 -1.204,1.484 0.397,0.353 1.137,0.963 2.016,1.578 0.88,0.614 1.792,1.198 2.079,1.406 0.992,0.722 2.1,1.343 2.281,1.735 0.262,0.569 0.155,0.782 0.03,1.094 -0.109,0.275 -0.368,0.621 -0.873,1.015 -0.524,0.407 -0.943,1.271 -1.189,1.672 -0.116,0.189 0.183,0.681 0.532,1.187 0.348,0.507 0.75,1.044 0.843,1.25 0.186,0.409 0.169,0.765 0.031,1.126 -0.137,0.36 -0.341,0.783 -0.656,1.093 -0.351,0.347 -0.558,0.561 -0.937,0.844 2.507,0 3.724,1.464 7.687,0.406 4.001,-1.068 2.432,-4.708 3.906,-6.125 1.475,-1.417 5.813,-2.622 5.813,-5.031 0,-2.409 -1.965,-3.642 -2,-6 -0.062,-4.229 -2.544,-4.05 -3.969,-7.219 -1.115,-2.48 0.525,-5.7942 -2.718,-7.3748 -3.679,-1.7926 -3.78,0.4723 -8.782,0.5938 -0.983,0.0239 -1.701,-0.1302 -2.468,-0.25 z"
       style="fill:none;stroke:url(#linearGradient3158);stroke-width:1.12770629;stroke-linecap:round;stroke-linejoin:round;stroke-miterlimit:4"
       sodipodi:nodetypes="cscscssssssscscsssssssssscsssssssc"
       id="path6600"
       inkscape:connector-curvature="0" /><path
       d="m 23.5,39.5 c 0.01,0.093 0.071,0.212 0.094,0.312 0.333,-0.085 0.763,-0.312 1.031,-0.312 2.753,0 4.867,1.63 9.219,0.469 4.393,-1.173 2.662,-5.163 4.281,-6.719 1.619,-1.556 6.375,-2.855 6.375,-5.5 0,-2.645 -2.149,-4.004 -2.188,-6.594 -0.067,-4.643 -2.81,-4.458 -4.374,-7.937 C 36.712,10.495 38.53,6.8605 34.969,5.125 30.929,3.1566 30.242,5.6479 24.75,5.7812 24.335,5.7913 24.176,5.7971 23.809,5.7778"
       style="fill:none;stroke:#4c0901;stroke-width:1.12770629;stroke-linecap:round;stroke-linejoin:round;stroke-miterlimit:4"
       sodipodi:nodetypes="ccssssssssc"
       id="path2187"
       inkscape:connector-curvature="0" /></g><rect
     x="14.387858"
     y="14.479692"
     width="19.563602"
     height="18.97591"
     ry="0.9488095"
     rx="0.99632466"
     style="fill:#ffffff;fill-rule:evenodd;stroke:#000000;stroke-width:0.80696148;stroke-linecap:round;stroke-linejoin:round;stroke-miterlimit:4;stroke-dasharray:none"
     id="rect2277" /><g
     transform="matrix(0.63221991,0,0,0.70991535,12.480213,12.094988)"
     id="g3551"><path
       d="m 11.319,9.2241 c 5.323,5.4689 11.45,9.8999 17.892,13.707 l -1.769,1.229 c -6.34,-4.115 -12.389,-8.661 -18.258,-13.508 l 2.135,-1.4279 z"
       style="color:#000000;fill:#cc0000;fill-rule:nonzero;stroke:#cc0000;stroke-width:2.10806251;stroke-linecap:round;stroke-linejoin:round;stroke-miterlimit:4;stroke-dasharray:none;stroke-dashoffset:0;marker-start:none;marker-mid:none;marker-end:none"
       id="path2565"
       inkscape:connector-curvature="0" /><path
       d="m 26.739,8.9211 c -4.871,7.0319 -11.492,12.16 -18.832,16.361 l 2.181,-1.761 c -1.3639,0.858 15.486,-11.717 13.764,-13.313 l 2.887,-1.2869 z"
       style="color:#000000;fill:#cc0000;fill-rule:nonzero;stroke:#cc0000;stroke-width:2.78286386;stroke-linecap:round;stroke-linejoin:round;stroke-miterlimit:4;stroke-dasharray:none;stroke-dashoffset:0;marker-start:none;marker-mid:none;marker-end:none"
       id="path2575"
       inkscape:connector-curvature="0" /></g></g></svg>